<svg width="147" height="142" viewBox="0 0 147 142" fill="none" xmlns="http://www.w3.org/2000/svg">
<rect width="147" height="142" rx="20" fill="white"/>
<path d="M84.7187 56.1258H47.0586V92.9466C47.0622 94.1436 47.1275 95.3407 47.2507 96.5307C47.3776 97.7207 47.5625 98.9037 47.8053 100.076C48.0518 101.249 48.3563 102.407 48.7188 103.552C49.0813 104.696 49.4982 105.823 49.9767 106.925C50.4516 108.031 50.9845 109.109 51.5681 110.165C52.1553 111.218 52.7933 112.243 53.4821 113.237C54.1708 114.23 54.9067 115.189 55.6933 116.112C56.48 117.035 57.3137 117.92 58.1873 118.762C59.0646 119.608 59.9817 120.409 60.9387 121.167C61.8957 121.922 62.889 122.634 63.9185 123.294C64.948 123.958 66.0101 124.572 67.1012 125.134C68.1923 125.695 69.3088 126.204 70.4507 126.661C71.5926 127.117 72.7562 127.517 73.9416 127.861C75.1233 128.209 76.3232 128.497 77.534 128.728C78.7483 128.96 79.97 129.132 81.1988 129.248C82.4313 129.364 83.6638 129.42 84.9 129.42C86.1397 129.416 87.3758 129.353 88.612 129.234C89.8445 129.114 91.0697 128.935 92.2877 128.697C93.5021 128.461 94.7056 128.167 95.891 127.816C97.0763 127.464 98.2436 127.057 99.3891 126.597C100.535 126.134 101.651 125.622 102.746 125.053C103.837 124.484 104.899 123.866 105.929 123.196C106.962 122.529 107.955 121.813 108.912 121.047C109.869 120.286 110.786 119.478 111.663 118.629C112.541 117.779 113.371 116.888 114.157 115.957C114.944 115.031 115.68 114.065 116.369 113.065C117.057 112.068 117.692 111.036 118.275 109.976C118.859 108.919 119.388 107.831 119.863 106.721C120.338 105.612 120.755 104.482 121.114 103.334C121.473 102.182 121.773 101.021 122.016 99.841C122.256 98.6615 122.437 97.475 122.56 96.2815C122.68 95.0844 122.741 93.8873 122.741 92.6868C122.741 91.4827 122.68 90.2857 122.56 89.0886C122.437 87.8951 122.256 86.7085 122.016 85.529C121.773 84.353 121.473 83.1876 121.114 82.0362C120.755 80.8883 120.338 79.7579 119.863 78.6486C119.388 77.5393 118.859 76.4546 118.275 75.3945C117.692 74.3343 117.057 73.3023 116.369 72.3053C115.68 71.3048 114.944 70.3395 114.157 69.4127C113.371 68.4825 112.541 67.5908 111.663 66.7413C110.786 65.8918 109.869 65.0844 108.912 64.3226C107.955 63.5573 106.962 62.8412 105.929 62.1742C104.899 61.5037 103.837 60.8859 102.746 60.3172C101.651 59.7485 100.535 59.236 99.3891 58.7726C98.2436 58.3128 97.0763 57.9056 95.891 57.5545C94.7056 57.2035 93.5021 56.9086 92.2877 56.6734C91.0697 56.4347 89.8445 56.2557 88.612 56.1363C87.3758 56.017 86.1397 55.9538 84.9 55.9538C84.7767 55.9503 84.7151 56.0064 84.7187 56.1258ZM114.049 92.7745C114.049 93.6908 113.998 94.607 113.904 95.5197C113.806 96.4324 113.668 97.3416 113.479 98.2403C113.291 99.1389 113.059 100.031 112.783 100.908C112.508 101.786 112.185 102.649 111.823 103.495C111.457 104.345 111.051 105.173 110.605 105.981C110.155 106.792 109.67 107.578 109.14 108.34C108.615 109.101 108.049 109.839 107.447 110.548C106.846 111.257 106.211 111.938 105.541 112.587C104.87 113.237 104.167 113.851 103.435 114.434C102.702 115.017 101.941 115.564 101.154 116.073C100.368 116.586 99.5558 117.056 98.7185 117.491C97.8847 117.923 97.0292 118.316 96.152 118.671C95.2783 119.022 94.3866 119.331 93.4803 119.601C92.5741 119.868 91.657 120.093 90.7253 120.275C89.7973 120.454 88.8621 120.591 87.916 120.686C86.9735 120.777 86.0273 120.823 85.0812 120.826H84.9C83.9502 120.823 83.0041 120.777 82.0616 120.686C81.1191 120.591 80.1838 120.454 79.2522 120.275C78.3242 120.093 77.4071 119.868 76.5008 119.601C75.591 119.331 74.7028 119.022 73.8256 118.671C72.952 118.316 72.0965 117.923 71.2591 117.491C70.4253 117.056 69.6133 116.586 68.8231 116.073C68.0365 115.564 67.2752 115.017 66.543 114.434C65.8107 113.851 65.1111 113.237 64.4405 112.587C63.7698 111.938 63.1318 111.257 62.5301 110.548C61.9283 109.839 61.3665 109.101 60.8372 108.34C60.3116 107.578 59.8222 106.792 59.3763 105.981C58.9268 105.173 58.5208 104.345 58.1583 103.495C57.7922 102.649 57.4732 101.786 57.1977 100.908C56.9186 100.031 56.6866 99.1389 56.5017 98.2403C56.3132 97.3416 56.1718 96.4324 56.0776 95.5197C55.9797 94.607 55.9326 93.6908 55.929 92.7745V64.7193H85.2625C86.205 64.7298 87.1438 64.786 88.0827 64.8843C89.0216 64.9826 89.9532 65.1265 90.8776 65.3125C91.7983 65.5021 92.7118 65.7303 93.6108 66.0041C94.5135 66.2779 95.398 66.5903 96.268 66.9484C97.1343 67.3029 97.9862 67.6996 98.8127 68.1349C99.6428 68.5702 100.448 69.0441 101.231 69.5566C102.014 70.0692 102.768 70.6133 103.493 71.196C104.221 71.7787 104.917 72.3966 105.581 73.0425C106.248 73.6919 106.878 74.3694 107.473 75.0785C108.071 75.7841 108.633 76.5178 109.155 77.2796C109.68 78.0378 110.163 78.8206 110.608 79.628C111.054 80.4319 111.457 81.2569 111.819 82.1029C112.182 82.9454 112.501 83.8054 112.776 84.6795C113.052 85.5536 113.284 86.4382 113.472 87.3334C113.657 88.2286 113.798 89.1307 113.896 90.0399C113.994 90.9491 114.045 91.8583 114.049 92.7745Z" fill="#5271FF"/>
<path d="M25 85.2905H63.2039C64.44 85.287 65.6725 85.2238 66.9014 85.1009C68.1303 84.9816 69.3519 84.8025 70.5626 84.5638C71.7734 84.3286 72.9696 84.0337 74.1514 83.6827C75.3331 83.3317 76.4968 82.9245 77.635 82.4646C78.7769 82.0047 79.8934 81.4887 80.9809 80.9235C82.0684 80.3548 83.1269 79.737 84.1528 79.07C85.1786 78.403 86.1683 77.6869 87.1216 76.9252C88.075 76.1634 88.9885 75.3595 89.8585 74.51C90.7321 73.664 91.5586 72.7758 92.3416 71.8491C93.121 70.9188 93.8569 69.957 94.5384 68.9635C95.2235 67.9666 95.8579 66.938 96.4379 65.8814C97.0179 64.8247 97.5435 63.7435 98.0148 62.6378C98.486 61.5285 98.8993 60.4016 99.2545 59.2572C99.6134 58.1093 99.9106 56.9509 100.15 55.7749C100.389 54.6024 100.567 53.4194 100.686 52.2259C100.806 51.0358 100.864 49.8423 100.864 48.6452C100.86 47.4447 100.795 46.2441 100.672 45.0506C100.549 43.8535 100.364 42.667 100.117 41.491C99.8744 40.3115 99.5699 39.1496 99.2074 38.0017C98.8449 36.8537 98.428 35.7234 97.9495 34.6141C97.471 33.5048 96.9418 32.4201 96.3545 31.3635C95.7673 30.3033 95.1293 29.2783 94.4405 28.2778C93.7481 27.2808 93.0086 26.319 92.222 25.3922C91.4318 24.462 90.598 23.5738 89.7208 22.7278C88.8435 21.8783 87.9228 21.0744 86.9658 20.3127C86.0051 19.5509 85.0083 18.8383 83.9751 18.1713C82.9456 17.5043 81.8799 16.89 80.7888 16.3248C79.694 15.7561 78.5739 15.2471 77.4248 14.7873C76.2793 14.3274 75.112 13.9237 73.9266 13.5762C72.7376 13.2286 71.5378 12.9373 70.3198 12.7021C69.1018 12.4669 67.8765 12.2914 66.644 12.1755C65.4079 12.0562 64.1718 12 62.932 12C61.6886 12 60.4525 12.0562 59.22 12.1755C57.9839 12.2914 56.7586 12.4669 55.5406 12.7021C54.3263 12.9373 53.1228 13.2286 51.9374 13.5762C50.7484 13.9237 49.5811 14.3274 48.4356 14.7873C47.2901 15.2471 46.17 15.7561 45.0753 16.3248C43.9805 16.89 42.9184 17.5043 41.8853 18.1713C40.8521 18.8383 39.8553 19.5509 38.8983 20.3127C37.9376 21.0744 37.0169 21.8783 36.1396 22.7278C35.2624 23.5738 34.4286 24.462 33.642 25.3922C32.8518 26.319 32.1123 27.2808 31.4235 28.2778C30.7311 29.2783 30.0931 30.3033 29.5059 31.3635C28.9186 32.4201 28.3894 33.5048 27.9109 34.6141C27.436 35.7234 27.0155 36.8537 26.653 38.0017C26.2905 39.1496 25.986 40.3115 25.7431 41.491C25.4966 42.667 25.3154 43.8535 25.1885 45.0506C25.0653 46.2441 25 47.4447 25 48.6452V85.2905ZM63.0226 20.4145C63.9688 20.418 64.9149 20.4671 65.8574 20.5584C66.7999 20.6497 67.7388 20.7866 68.6668 20.9691C69.5948 21.1481 70.5155 21.3728 71.4218 21.6431C72.328 21.9099 73.2198 22.2188 74.0934 22.5734C74.9706 22.9244 75.8261 23.3176 76.6599 23.7529C77.4973 24.1847 78.3093 24.6586 79.0959 25.1676C79.8825 25.6801 80.6438 26.2277 81.376 26.8069C82.1083 27.3897 82.8115 28.0075 83.4821 28.6569C84.1528 29.3064 84.7871 29.9839 85.3889 30.693C85.9906 31.4056 86.5561 32.1393 87.0818 32.9045C87.611 33.6663 88.0968 34.4526 88.5463 35.26C88.9921 36.0709 89.3981 36.8994 89.7643 37.7454C90.1268 38.5949 90.4458 39.4585 90.7249 40.3361C91.0004 41.2137 91.2324 42.1018 91.4209 43.0005C91.6058 43.9027 91.7471 44.8084 91.845 45.7211C91.9393 46.6373 91.9864 47.55 91.99 48.4697V48.6452C91.9864 49.5615 91.9393 50.4777 91.845 51.3904C91.7471 52.3066 91.6058 53.2123 91.4209 54.111C91.2324 55.0131 91.0004 55.9013 90.7249 56.7789C90.4458 57.6565 90.1268 58.52 89.7643 59.3696C89.3981 60.2156 88.9921 61.044 88.5463 61.8514C88.0968 62.6623 87.611 63.4487 87.0818 64.2104C86.5561 64.9757 85.9906 65.7094 85.3889 66.4185C84.7871 67.1311 84.1528 67.8086 83.4821 68.458C82.8115 69.1075 82.1083 69.7218 81.376 70.3045C80.6438 70.8872 79.8825 71.4349 79.0959 71.9439C78.3093 72.4564 77.4973 72.9268 76.6599 73.3621C75.8261 73.7939 74.9706 74.187 74.0934 74.5416C73.2198 74.8926 72.328 75.205 71.4218 75.4718C70.5155 75.7386 69.5948 75.9633 68.6668 76.1458C67.7388 76.3284 66.7999 76.4653 65.8574 76.5566C64.9149 76.6478 63.9688 76.697 63.0226 76.697H34.0516V48.2942C34.0625 47.3815 34.1205 46.4688 34.222 45.5596C34.3235 44.6539 34.4721 43.7517 34.6643 42.8566C34.86 41.9614 35.0956 41.0803 35.3784 40.2062C35.6611 39.3356 35.9838 38.4791 36.3535 37.6366C36.7196 36.7941 37.1293 35.9726 37.5788 35.1687C38.0283 34.3684 38.5176 33.5856 39.0469 32.8308C39.5761 32.0726 40.1416 31.3424 40.7398 30.6403C41.3415 29.9347 41.9795 29.2607 42.6465 28.6183C43.3171 27.9724 44.0168 27.3616 44.749 26.7824C45.4776 26.2067 46.2353 25.6625 47.0219 25.157C47.8049 24.648 48.6133 24.1811 49.447 23.7494C50.2808 23.3176 51.129 22.9279 52.0026 22.5769C52.8726 22.2258 53.7608 21.9169 54.6634 21.6501C55.566 21.3833 56.4795 21.1587 57.4039 20.9761C58.3283 20.7936 59.2599 20.6567 60.1988 20.5654C61.1376 20.4706 62.0765 20.4215 63.0226 20.4145Z" fill="#5271FF"/>
</svg>
