<svg xmlns="http://www.w3.org/2000/svg" xmlns:xlink="http://www.w3.org/1999/xlink" width="600" zoomAndPan="magnify" viewBox="0 0 450 299.999988" height="400" preserveAspectRatio="xMidYMid meet" version="1.0"><defs><g><g id="id1"/></g><clipPath id="id2"><path d="M 80 136.898438 L 145.222656 136.898438 L 145.222656 202.148438 L 80 202.148438 Z M 80 136.898438 " clip-rule="nonzero"/></clipPath><clipPath id="id3"><path d="M 61.1875 97.84375 L 126.4375 97.84375 L 126.4375 163.09375 L 61.1875 163.09375 Z M 61.1875 97.84375 " clip-rule="nonzero"/></clipPath></defs><g clip-path="url(#id2)"><path fill="rgb(32.159424%, 44.309998%, 100%)" d="M 112.441406 137.054688 L 80.050781 137.054688 L 80.050781 169.757812 C 80.054688 170.820312 80.109375 171.878906 80.21875 172.9375 C 80.324219 173.996094 80.484375 175.046875 80.695312 176.089844 C 80.90625 177.128906 81.167969 178.160156 81.480469 179.175781 C 81.789062 180.191406 82.152344 181.191406 82.5625 182.171875 C 82.96875 183.152344 83.425781 184.113281 83.929688 185.046875 C 84.433594 185.984375 84.984375 186.894531 85.574219 187.777344 C 86.167969 188.660156 86.804688 189.507812 87.480469 190.328125 C 88.15625 191.148438 88.871094 191.933594 89.625 192.683594 C 90.378906 193.433594 91.167969 194.144531 91.992188 194.820312 C 92.8125 195.492188 93.667969 196.121094 94.554688 196.710938 C 95.4375 197.300781 96.351562 197.84375 97.289062 198.34375 C 98.226562 198.839844 99.1875 199.292969 100.171875 199.699219 C 101.15625 200.105469 102.15625 200.460938 103.171875 200.765625 C 104.191406 201.074219 105.222656 201.328125 106.265625 201.535156 C 107.308594 201.742188 108.359375 201.894531 109.417969 201.996094 C 110.476562 202.101562 111.535156 202.148438 112.597656 202.148438 C 113.664062 202.144531 114.730469 202.089844 115.792969 201.984375 C 116.851562 201.878906 117.90625 201.71875 118.953125 201.507812 C 120 201.296875 121.03125 201.039062 122.050781 200.726562 C 123.074219 200.414062 124.074219 200.054688 125.058594 199.644531 C 126.046875 199.234375 127.007812 198.777344 127.949219 198.269531 C 128.886719 197.765625 129.800781 197.21875 130.6875 196.625 C 131.574219 196.03125 132.429688 195.394531 133.253906 194.714844 C 134.074219 194.039062 134.863281 193.320312 135.617188 192.566406 C 136.371094 191.808594 137.085938 191.019531 137.761719 190.195312 C 138.4375 189.371094 139.074219 188.511719 139.664062 187.625 C 140.257812 186.738281 140.804688 185.824219 141.304688 184.882812 C 141.808594 183.941406 142.261719 182.976562 142.671875 181.992188 C 143.078125 181.003906 143.4375 180 143.746094 178.980469 C 144.054688 177.960938 144.3125 176.925781 144.523438 175.878906 C 144.730469 174.832031 144.886719 173.777344 144.988281 172.714844 C 145.09375 171.65625 145.148438 170.589844 145.148438 169.523438 C 145.148438 168.457031 145.09375 167.390625 144.988281 166.332031 C 144.886719 165.269531 144.730469 164.214844 144.523438 163.167969 C 144.3125 162.121094 144.054688 161.089844 143.746094 160.066406 C 143.4375 159.046875 143.078125 158.042969 142.671875 157.054688 C 142.261719 156.070312 141.808594 155.105469 141.304688 154.164062 C 140.804688 153.222656 140.257812 152.308594 139.664062 151.421875 C 139.074219 150.535156 138.4375 149.679688 137.761719 148.851562 C 137.085938 148.027344 136.371094 147.238281 135.617188 146.480469 C 134.863281 145.726562 134.074219 145.007812 133.253906 144.332031 C 132.429688 143.652344 131.574219 143.019531 130.6875 142.421875 C 129.800781 141.828125 128.886719 141.28125 127.949219 140.777344 C 127.007812 140.269531 126.046875 139.8125 125.058594 139.402344 C 124.074219 138.992188 123.074219 138.632812 122.050781 138.320312 C 121.03125 138.011719 120 137.75 118.953125 137.539062 C 117.90625 137.328125 116.851562 137.167969 115.792969 137.0625 C 114.730469 136.957031 113.664062 136.902344 112.597656 136.898438 C 112.492188 136.894531 112.441406 136.949219 112.441406 137.054688 Z M 137.671875 169.601562 C 137.667969 170.417969 137.625 171.230469 137.542969 172.042969 C 137.460938 172.851562 137.339844 173.65625 137.179688 174.457031 C 137.019531 175.257812 136.820312 176.046875 136.582031 176.824219 C 136.34375 177.605469 136.066406 178.371094 135.753906 179.125 C 135.441406 179.878906 135.09375 180.613281 134.707031 181.332031 C 134.320312 182.050781 133.902344 182.75 133.449219 183.425781 C 132.996094 184.105469 132.511719 184.757812 131.992188 185.390625 C 131.476562 186.019531 130.929688 186.621094 130.351562 187.199219 C 129.773438 187.773438 129.171875 188.324219 128.542969 188.839844 C 127.910156 189.355469 127.257812 189.84375 126.578125 190.296875 C 125.902344 190.75 125.203125 191.167969 124.484375 191.554688 C 123.765625 191.941406 123.03125 192.289062 122.277344 192.601562 C 121.523438 192.914062 120.757812 193.191406 119.980469 193.429688 C 119.199219 193.667969 118.410156 193.867188 117.609375 194.027344 C 116.8125 194.1875 116.003906 194.308594 115.195312 194.390625 C 114.382812 194.472656 113.570312 194.515625 112.753906 194.519531 L 112.597656 194.519531 C 111.785156 194.515625 110.96875 194.472656 110.160156 194.390625 C 109.347656 194.308594 108.542969 194.1875 107.742188 194.027344 C 106.945312 193.867188 106.152344 193.667969 105.375 193.429688 C 104.59375 193.191406 103.828125 192.914062 103.074219 192.601562 C 102.320312 192.289062 101.585938 191.941406 100.867188 191.554688 C 100.148438 191.167969 99.449219 190.75 98.773438 190.296875 C 98.09375 189.84375 97.441406 189.355469 96.8125 188.839844 C 96.179688 188.324219 95.578125 187.773438 95 187.199219 C 94.425781 186.621094 93.878906 186.019531 93.359375 185.390625 C 92.84375 184.757812 92.355469 184.105469 91.902344 183.425781 C 91.449219 182.75 91.03125 182.050781 90.644531 181.332031 C 90.261719 180.613281 89.910156 179.878906 89.597656 179.125 C 89.285156 178.371094 89.007812 177.605469 88.769531 176.824219 C 88.535156 176.046875 88.332031 175.257812 88.171875 174.457031 C 88.011719 173.65625 87.890625 172.851562 87.808594 172.042969 C 87.726562 171.230469 87.683594 170.417969 87.683594 169.601562 L 87.683594 144.683594 L 112.910156 144.683594 C 113.722656 144.695312 114.53125 144.742188 115.335938 144.832031 C 116.144531 144.921875 116.945312 145.046875 117.738281 145.214844 C 118.535156 145.378906 119.316406 145.582031 120.09375 145.824219 C 120.867188 146.066406 121.628906 146.347656 122.375 146.664062 C 123.121094 146.980469 123.851562 147.332031 124.566406 147.71875 C 125.28125 148.105469 125.972656 148.527344 126.644531 148.980469 C 127.316406 149.433594 127.964844 149.921875 128.589844 150.4375 C 129.214844 150.957031 129.816406 151.503906 130.386719 152.078125 C 130.960938 152.652344 131.5 153.257812 132.015625 153.882812 C 132.527344 154.511719 133.011719 155.164062 133.460938 155.839844 C 133.910156 156.515625 134.328125 157.210938 134.710938 157.925781 C 135.09375 158.640625 135.441406 159.375 135.75 160.125 C 136.0625 160.875 136.335938 161.636719 136.574219 162.410156 C 136.8125 163.1875 137.011719 163.972656 137.171875 164.769531 C 137.332031 165.566406 137.457031 166.367188 137.539062 167.171875 C 137.621094 167.980469 137.667969 168.789062 137.671875 169.601562 Z M 137.671875 169.601562 " fill-opacity="1" fill-rule="nonzero"/></g><g clip-path="url(#id3)"><path fill="rgb(32.159424%, 44.309998%, 100%)" d="M 61.1875 163.015625 L 94.042969 163.015625 C 95.105469 163.011719 96.167969 162.957031 97.226562 162.847656 C 98.28125 162.742188 99.332031 162.582031 100.375 162.371094 C 101.417969 162.160156 102.445312 161.898438 103.460938 161.589844 C 104.480469 161.277344 105.476562 160.914062 106.460938 160.507812 C 107.441406 160.097656 108.398438 159.640625 109.335938 159.136719 C 110.269531 158.632812 111.179688 158.082031 112.0625 157.492188 C 112.945312 156.898438 113.796875 156.261719 114.617188 155.585938 C 115.4375 154.910156 116.222656 154.195312 116.972656 153.441406 C 117.722656 152.6875 118.433594 151.898438 119.105469 151.078125 C 119.777344 150.253906 120.410156 149.398438 120.996094 148.511719 C 121.585938 147.628906 122.128906 146.714844 122.628906 145.777344 C 123.128906 144.839844 123.582031 143.878906 123.984375 142.894531 C 124.390625 141.910156 124.746094 140.910156 125.054688 139.894531 C 125.359375 138.875 125.617188 137.84375 125.820312 136.800781 C 126.027344 135.757812 126.183594 134.707031 126.285156 133.648438 C 126.386719 132.59375 126.4375 131.53125 126.4375 130.46875 C 126.433594 129.402344 126.378906 128.335938 126.269531 127.277344 C 126.164062 126.214844 126.007812 125.160156 125.796875 124.113281 C 125.585938 123.070312 125.324219 122.035156 125.011719 121.015625 C 124.699219 119.996094 124.339844 118.992188 123.929688 118.007812 C 123.519531 117.023438 123.0625 116.058594 122.558594 115.121094 C 122.054688 114.179688 121.503906 113.265625 120.910156 112.378906 C 120.316406 111.492188 119.679688 110.640625 119.003906 109.816406 C 118.324219 108.992188 117.609375 108.203125 116.851562 107.449219 C 116.097656 106.695312 115.308594 105.980469 114.480469 105.304688 C 113.65625 104.628906 112.800781 103.996094 111.910156 103.402344 C 111.023438 102.8125 110.109375 102.265625 109.167969 101.761719 C 108.226562 101.257812 107.265625 100.804688 106.277344 100.398438 C 105.292969 99.988281 104.289062 99.628906 103.265625 99.320312 C 102.246094 99.011719 101.210938 98.753906 100.167969 98.546875 C 99.121094 98.335938 98.066406 98.179688 97.003906 98.078125 C 95.941406 97.972656 94.878906 97.921875 93.8125 97.921875 C 92.742188 97.921875 91.679688 97.972656 90.617188 98.078125 C 89.554688 98.179688 88.5 98.335938 87.457031 98.546875 C 86.410156 98.753906 85.375 99.011719 84.355469 99.320312 C 83.332031 99.628906 82.328125 99.988281 81.34375 100.398438 C 80.359375 100.804688 79.394531 101.257812 78.453125 101.761719 C 77.511719 102.265625 76.597656 102.8125 75.710938 103.402344 C 74.820312 103.996094 73.964844 104.628906 73.140625 105.304688 C 72.3125 105.980469 71.523438 106.695312 70.769531 107.449219 C 70.011719 108.203125 69.296875 108.992188 68.617188 109.816406 C 67.941406 110.640625 67.304688 111.492188 66.710938 112.378906 C 66.117188 113.265625 65.566406 114.179688 65.0625 115.121094 C 64.558594 116.058594 64.101562 117.023438 63.691406 118.007812 C 63.28125 118.992188 62.921875 119.996094 62.609375 121.015625 C 62.296875 122.035156 62.035156 123.070312 61.824219 124.113281 C 61.617188 125.160156 61.457031 126.214844 61.351562 127.277344 C 61.242188 128.335938 61.1875 129.402344 61.1875 130.46875 Z M 93.886719 105.394531 C 94.703125 105.398438 95.515625 105.441406 96.328125 105.523438 C 97.140625 105.605469 97.945312 105.726562 98.746094 105.886719 C 99.542969 106.046875 100.332031 106.246094 101.113281 106.484375 C 101.894531 106.722656 102.660156 107 103.414062 107.3125 C 104.164062 107.625 104.902344 107.972656 105.621094 108.359375 C 106.339844 108.746094 107.035156 109.164062 107.714844 109.617188 C 108.390625 110.070312 109.046875 110.558594 109.675781 111.074219 C 110.304688 111.589844 110.910156 112.140625 111.484375 112.714844 C 112.0625 113.292969 112.609375 113.894531 113.125 114.527344 C 113.644531 115.15625 114.128906 115.808594 114.582031 116.488281 C 115.035156 117.164062 115.457031 117.863281 115.839844 118.582031 C 116.226562 119.300781 116.574219 120.035156 116.890625 120.789062 C 117.203125 121.542969 117.476562 122.308594 117.714844 123.089844 C 117.953125 123.867188 118.152344 124.65625 118.3125 125.457031 C 118.476562 126.257812 118.597656 127.0625 118.679688 127.871094 C 118.761719 128.683594 118.800781 129.496094 118.804688 130.3125 L 118.804688 130.46875 C 118.800781 131.285156 118.761719 132.097656 118.679688 132.910156 C 118.597656 133.71875 118.476562 134.523438 118.3125 135.324219 C 118.152344 136.125 117.953125 136.914062 117.714844 137.691406 C 117.476562 138.472656 117.203125 139.238281 116.890625 139.992188 C 116.574219 140.746094 116.226562 141.480469 115.839844 142.199219 C 115.457031 142.917969 115.035156 143.617188 114.582031 144.292969 C 114.128906 144.972656 113.644531 145.625 113.125 146.253906 C 112.609375 146.886719 112.0625 147.488281 111.484375 148.066406 C 110.910156 148.640625 110.304688 149.1875 109.675781 149.707031 C 109.046875 150.222656 108.390625 150.710938 107.714844 151.164062 C 107.035156 151.617188 106.339844 152.035156 105.621094 152.421875 C 104.902344 152.804688 104.164062 153.15625 103.414062 153.46875 C 102.660156 153.78125 101.894531 154.058594 101.113281 154.296875 C 100.332031 154.535156 99.542969 154.734375 98.746094 154.894531 C 97.945312 155.054688 97.140625 155.175781 96.328125 155.257812 C 95.515625 155.339844 94.703125 155.382812 93.886719 155.386719 L 68.972656 155.386719 L 68.972656 130.15625 C 68.980469 129.34375 69.03125 128.535156 69.117188 127.730469 C 69.207031 126.921875 69.335938 126.121094 69.5 125.328125 C 69.667969 124.535156 69.871094 123.75 70.113281 122.972656 C 70.355469 122.199219 70.632812 121.4375 70.949219 120.691406 C 71.265625 119.945312 71.617188 119.214844 72.003906 118.5 C 72.394531 117.789062 72.8125 117.09375 73.269531 116.421875 C 73.722656 115.75 74.207031 115.101562 74.726562 114.476562 C 75.242188 113.851562 75.789062 113.253906 76.367188 112.679688 C 76.941406 112.109375 77.542969 111.566406 78.171875 111.050781 C 78.800781 110.539062 79.453125 110.054688 80.128906 109.605469 C 80.800781 109.15625 81.496094 108.738281 82.214844 108.355469 C 82.929688 107.972656 83.660156 107.625 84.410156 107.316406 C 85.160156 107.003906 85.921875 106.730469 86.699219 106.492188 C 87.476562 106.253906 88.261719 106.054688 89.054688 105.894531 C 89.851562 105.734375 90.652344 105.609375 91.460938 105.527344 C 92.265625 105.445312 93.078125 105.402344 93.886719 105.394531 Z M 93.886719 105.394531 " fill-opacity="1" fill-rule="nonzero"/></g><g fill="rgb(32.159424%, 44.309998%, 100%)" fill-opacity="1"><g transform="translate(154.054873, 166.444292)"><g><path d="M 14.921875 -29.515625 C 13.535156 -29.515625 12.40625 -29.160156 11.53125 -28.453125 C 10.65625 -27.742188 10.21875 -26.757812 10.21875 -25.5 C 10.21875 -24.238281 10.539062 -23.253906 11.1875 -22.546875 C 11.832031 -21.835938 12.679688 -21.289062 13.734375 -20.90625 C 14.796875 -20.53125 15.953125 -20.191406 17.203125 -19.890625 C 18.460938 -19.597656 19.722656 -19.234375 20.984375 -18.796875 C 22.242188 -18.367188 23.398438 -17.835938 24.453125 -17.203125 C 25.515625 -16.578125 26.367188 -15.660156 27.015625 -14.453125 C 27.660156 -13.253906 27.984375 -11.796875 27.984375 -10.078125 C 27.984375 -7.222656 26.847656 -4.769531 24.578125 -2.71875 C 22.316406 -0.675781 19.304688 0.34375 15.546875 0.34375 C 11.796875 0.34375 8.765625 -0.539062 6.453125 -2.3125 C 4.140625 -4.082031 2.984375 -6.566406 2.984375 -9.765625 L 10.421875 -9.765625 C 10.679688 -6.722656 12.414062 -5.203125 15.625 -5.203125 C 17.21875 -5.203125 18.472656 -5.613281 19.390625 -6.4375 C 20.316406 -7.269531 20.78125 -8.375 20.78125 -9.75 C 20.78125 -11.125 20.164062 -12.207031 18.9375 -13 C 17.71875 -13.789062 16.238281 -14.382812 14.5 -14.78125 C 12.769531 -15.175781 11.023438 -15.65625 9.265625 -16.21875 C 7.515625 -16.78125 6.03125 -17.765625 4.8125 -19.171875 C 3.59375 -20.578125 2.984375 -22.4375 2.984375 -24.75 C 2.984375 -27.894531 4.125 -30.410156 6.40625 -32.296875 C 8.6875 -34.179688 11.617188 -35.125 15.203125 -35.125 C 18.796875 -35.125 21.679688 -34.304688 23.859375 -32.671875 C 26.046875 -31.035156 27.238281 -28.546875 27.4375 -25.203125 L 19.796875 -25.203125 C 19.660156 -26.523438 19.160156 -27.570312 18.296875 -28.34375 C 17.441406 -29.125 16.316406 -29.515625 14.921875 -29.515625 Z M 14.921875 -29.515625 "/></g></g></g><g fill="rgb(32.159424%, 44.309998%, 100%)" fill-opacity="1"><g transform="translate(187.489494, 166.444292)"><g><path d="M 23.046875 -7.828125 C 24.484375 -9.285156 25.203125 -11.269531 25.203125 -13.78125 C 25.203125 -16.300781 24.484375 -18.269531 23.046875 -19.6875 C 21.609375 -21.113281 19.910156 -21.828125 17.953125 -21.828125 C 16.003906 -21.828125 14.3125 -21.109375 12.875 -19.671875 C 11.4375 -18.234375 10.71875 -16.253906 10.71875 -13.734375 C 10.71875 -11.222656 11.4375 -9.25 12.875 -7.8125 C 14.3125 -6.375 16.003906 -5.65625 17.953125 -5.65625 C 19.910156 -5.65625 21.609375 -6.378906 23.046875 -7.828125 Z M 10.71875 -23.21875 C 12.664062 -26.320312 15.523438 -27.875 19.296875 -27.875 C 23.066406 -27.875 26.175781 -26.5625 28.625 -23.9375 C 31.070312 -21.3125 32.296875 -17.921875 32.296875 -13.765625 C 32.296875 -9.617188 31.070312 -6.222656 28.625 -3.578125 C 26.175781 -0.929688 23.09375 0.390625 19.375 0.390625 C 15.65625 0.390625 12.769531 -1.273438 10.71875 -4.609375 L 10.71875 13.09375 L 3.71875 13.09375 L 3.71875 -27.484375 L 10.71875 -27.484375 Z M 10.71875 -23.21875 "/></g></g></g><g fill="rgb(32.159424%, 44.309998%, 100%)" fill-opacity="1"><g transform="translate(224.049256, 166.444292)"><g><path d="M 10.71875 -27.484375 L 10.71875 -22.625 C 12.570312 -26.125 15.25 -27.875 18.75 -27.875 L 18.75 -20.734375 L 17.015625 -20.734375 C 14.929688 -20.734375 13.359375 -20.210938 12.296875 -19.171875 C 11.242188 -18.128906 10.71875 -16.335938 10.71875 -13.796875 L 10.71875 0 L 3.71875 0 L 3.71875 -27.484375 Z M 10.71875 -27.484375 "/></g></g></g><g fill="rgb(32.159424%, 44.309998%, 100%)" fill-opacity="1"><g transform="translate(246.521055, 166.444292)"><g><path d="M 15.921875 -5.5 C 17.878906 -5.5 19.554688 -6.21875 20.953125 -7.65625 C 22.359375 -9.101562 23.0625 -11.140625 23.0625 -13.765625 C 23.0625 -16.390625 22.367188 -18.414062 20.984375 -19.84375 C 19.597656 -21.269531 17.921875 -21.984375 15.953125 -21.984375 C 13.984375 -21.984375 12.320312 -21.269531 10.96875 -19.84375 C 9.613281 -18.414062 8.9375 -16.378906 8.9375 -13.734375 C 8.9375 -11.085938 9.613281 -9.050781 10.96875 -7.625 C 12.320312 -6.207031 13.972656 -5.5 15.921875 -5.5 Z M 5.84375 -3.515625 C 3.164062 -6.128906 1.828125 -9.550781 1.828125 -13.78125 C 1.828125 -18.019531 3.179688 -21.425781 5.890625 -24 C 8.609375 -26.582031 11.976562 -27.875 16 -27.875 C 20.019531 -27.875 23.382812 -26.582031 26.09375 -24 C 28.800781 -21.425781 30.15625 -18.019531 30.15625 -13.78125 C 30.15625 -9.550781 28.789062 -6.128906 26.0625 -3.515625 C 23.34375 -0.910156 19.960938 0.390625 15.921875 0.390625 C 11.890625 0.390625 8.53125 -0.910156 5.84375 -3.515625 Z M 5.84375 -3.515625 "/></g></g></g><g fill="rgb(32.159424%, 44.309998%, 100%)" fill-opacity="1"><g transform="translate(280.997386, 166.444292)"><g><path d="M 22.671875 -27.484375 L 29.671875 -27.484375 L 29.671875 0 L 22.671875 0 L 22.671875 -4.171875 C 20.921875 -1.160156 18.0625 0.34375 14.09375 0.34375 C 10.976562 0.34375 8.425781 -0.6875 6.4375 -2.75 C 4.457031 -4.820312 3.46875 -7.691406 3.46875 -11.359375 L 3.46875 -27.484375 L 10.421875 -27.484375 L 10.421875 -12.359375 C 10.421875 -10.203125 10.960938 -8.546875 12.046875 -7.390625 C 13.140625 -6.234375 14.628906 -5.65625 16.515625 -5.65625 C 18.398438 -5.65625 19.894531 -6.234375 21 -7.390625 C 22.113281 -8.546875 22.671875 -10.203125 22.671875 -12.359375 Z M 22.671875 -27.484375 "/></g></g></g><g fill="rgb(32.159424%, 44.309998%, 100%)" fill-opacity="1"><g transform="translate(316.862675, 166.444292)"><g><path d="M 14.390625 -5.859375 L 17.703125 -5.859375 L 17.703125 0 L 13.296875 0 C 10.484375 0 8.316406 -0.644531 6.796875 -1.9375 C 5.273438 -3.226562 4.515625 -5.359375 4.515625 -8.328125 L 4.515625 -21.78125 L 1.59375 -21.78125 L 1.59375 -27.484375 L 4.515625 -27.484375 L 4.515625 -34.28125 L 11.515625 -34.28125 L 11.515625 -27.484375 L 17.65625 -27.484375 L 17.65625 -21.78125 L 11.515625 -21.78125 L 11.515625 -8.328125 C 11.515625 -7.441406 11.726562 -6.804688 12.15625 -6.421875 C 12.582031 -6.046875 13.328125 -5.859375 14.390625 -5.859375 Z M 14.390625 -5.859375 "/></g></g></g><g fill="rgb(32.159424%, 44.309998%, 100%)" fill-opacity="1"><g transform="translate(338.788821, 166.444292)"><g><path d="M 3.71875 0 L 3.71875 -36.71875 L 10.71875 -36.71875 L 10.71875 0 Z M 3.71875 0 "/></g></g></g><g fill="rgb(32.159424%, 44.309998%, 100%)" fill-opacity="1"><g transform="translate(355.704812, 166.444292)"><g><path d="M 11.109375 -0.5 L 0.34375 -27.484375 L 8.1875 -27.484375 L 15.1875 -7.9375 L 22.578125 -27.484375 L 29.859375 -27.484375 L 12.703125 13 L 5.40625 13 Z M 11.109375 -0.5 "/></g></g></g></svg>