<svg xmlns="http://www.w3.org/2000/svg" xmlns:xlink="http://www.w3.org/1999/xlink" width="500" zoomAndPan="magnify" viewBox="0 0 375 374.999991" height="500" preserveAspectRatio="xMidYMid meet" version="1.0"><defs><g><g id="id1"/></g><clipPath id="id2"><path d="M 48.621094 168.378906 L 130.371094 168.378906 L 130.371094 250.128906 L 48.621094 250.128906 Z M 48.621094 168.378906 " clip-rule="nonzero"/></clipPath><clipPath id="id3"><path d="M 24.945312 119.375 L 106.695312 119.375 L 106.695312 201.125 L 24.945312 201.125 Z M 24.945312 119.375 " clip-rule="nonzero"/></clipPath></defs><rect x="-37.5" width="450" fill="rgb(100%, 100%, 100%)" y="-37.499999" height="449.999989" fill-opacity="1"/><rect x="-37.5" width="450" fill="rgb(100%, 100%, 100%)" y="-37.499999" height="449.999989" fill-opacity="1"/><rect x="-37.5" width="450" fill="rgb(100%, 100%, 100%)" y="-37.499999" height="449.999989" fill-opacity="1"/><rect x="-37.5" width="450" fill="rgb(100%, 100%, 100%)" y="-37.499999" height="449.999989" fill-opacity="1"/><g clip-path="url(#id2)"><path fill="rgb(32.159424%, 44.309998%, 100%)" d="M 89.300781 168.574219 L 48.71875 168.574219 L 48.71875 209.546875 C 48.722656 210.878906 48.792969 212.207031 48.925781 213.535156 C 49.0625 214.859375 49.261719 216.175781 49.523438 217.480469 C 49.789062 218.785156 50.113281 220.074219 50.503906 221.347656 C 50.894531 222.621094 51.347656 223.875 51.859375 225.101562 C 52.375 226.332031 52.945312 227.53125 53.578125 228.707031 C 54.207031 229.878906 54.894531 231.015625 55.640625 232.125 C 56.382812 233.230469 57.175781 234.296875 58.023438 235.324219 C 58.871094 236.351562 59.769531 237.332031 60.710938 238.273438 C 61.65625 239.214844 62.644531 240.105469 63.675781 240.945312 C 64.707031 241.789062 65.777344 242.578125 66.886719 243.316406 C 67.996094 244.054688 69.136719 244.734375 70.3125 245.363281 C 71.488281 245.988281 72.695312 246.554688 73.925781 247.0625 C 75.15625 247.566406 76.410156 248.015625 77.6875 248.398438 C 78.960938 248.78125 80.253906 249.105469 81.558594 249.363281 C 82.867188 249.617188 84.183594 249.8125 85.507812 249.941406 C 86.832031 250.070312 88.164062 250.132812 89.496094 250.128906 C 90.832031 250.128906 92.164062 250.058594 93.496094 249.925781 C 94.824219 249.789062 96.144531 249.59375 97.457031 249.328125 C 98.765625 249.066406 100.058594 248.738281 101.339844 248.347656 C 102.617188 247.957031 103.875 247.503906 105.105469 246.992188 C 106.339844 246.476562 107.546875 245.90625 108.726562 245.273438 C 109.902344 244.640625 111.046875 243.953125 112.15625 243.207031 C 113.265625 242.464844 114.339844 241.667969 115.371094 240.816406 C 116.402344 239.96875 117.390625 239.070312 118.335938 238.125 C 119.277344 237.179688 120.175781 236.1875 121.023438 235.152344 C 121.867188 234.121094 122.664062 233.046875 123.40625 231.933594 C 124.144531 230.820312 124.832031 229.675781 125.460938 228.496094 C 126.089844 227.316406 126.660156 226.109375 127.171875 224.875 C 127.679688 223.640625 128.128906 222.382812 128.519531 221.101562 C 128.90625 219.824219 129.230469 218.527344 129.488281 217.21875 C 129.75 215.90625 129.945312 214.585938 130.078125 213.253906 C 130.207031 211.925781 130.273438 210.59375 130.273438 209.253906 C 130.273438 207.917969 130.207031 206.585938 130.078125 205.253906 C 129.945312 203.925781 129.75 202.605469 129.488281 201.292969 C 129.230469 199.980469 128.90625 198.6875 128.519531 197.40625 C 128.128906 196.128906 127.679688 194.871094 127.171875 193.636719 C 126.660156 192.398438 126.089844 191.191406 125.460938 190.011719 C 124.832031 188.835938 124.144531 187.6875 123.40625 186.578125 C 122.664062 185.464844 121.867188 184.390625 121.023438 183.355469 C 120.175781 182.324219 119.277344 181.332031 118.335938 180.386719 C 117.390625 179.441406 116.402344 178.542969 115.371094 177.691406 C 114.339844 176.84375 113.265625 176.046875 112.15625 175.300781 C 111.046875 174.558594 109.902344 173.871094 108.726562 173.238281 C 107.546875 172.605469 106.339844 172.03125 105.105469 171.519531 C 103.875 171.003906 102.617188 170.554688 101.339844 170.164062 C 100.058594 169.773438 98.765625 169.445312 97.457031 169.183594 C 96.144531 168.917969 94.824219 168.71875 93.496094 168.585938 C 92.164062 168.453125 90.832031 168.382812 89.496094 168.378906 C 89.363281 168.378906 89.296875 168.441406 89.300781 168.574219 Z M 120.90625 209.351562 C 120.902344 210.375 120.851562 211.394531 120.75 212.410156 C 120.644531 213.425781 120.492188 214.433594 120.292969 215.4375 C 120.089844 216.4375 119.839844 217.425781 119.542969 218.40625 C 119.242188 219.382812 118.898438 220.339844 118.507812 221.285156 C 118.113281 222.226562 117.675781 223.148438 117.195312 224.050781 C 116.710938 224.949219 116.1875 225.824219 115.617188 226.675781 C 115.050781 227.523438 114.441406 228.34375 113.792969 229.132812 C 113.144531 229.921875 112.460938 230.675781 111.738281 231.398438 C 111.015625 232.121094 110.257812 232.808594 109.46875 233.457031 C 108.679688 234.105469 107.859375 234.710938 107.011719 235.28125 C 106.164062 235.847656 105.289062 236.375 104.386719 236.855469 C 103.488281 237.339844 102.566406 237.777344 101.621094 238.167969 C 100.679688 238.5625 99.71875 238.90625 98.742188 239.207031 C 97.765625 239.503906 96.773438 239.753906 95.773438 239.957031 C 94.773438 240.15625 93.761719 240.308594 92.746094 240.410156 C 91.730469 240.515625 90.710938 240.566406 89.691406 240.570312 L 89.496094 240.570312 C 88.472656 240.566406 87.453125 240.515625 86.4375 240.410156 C 85.421875 240.308594 84.414062 240.15625 83.410156 239.957031 C 82.410156 239.753906 81.421875 239.503906 80.441406 239.207031 C 79.464844 238.90625 78.503906 238.5625 77.5625 238.167969 C 76.621094 237.777344 75.699219 237.339844 74.796875 236.855469 C 73.898438 236.375 73.023438 235.847656 72.171875 235.28125 C 71.324219 234.710938 70.503906 234.105469 69.714844 233.457031 C 68.925781 232.808594 68.167969 232.121094 67.449219 231.398438 C 66.726562 230.675781 66.039062 229.921875 65.390625 229.132812 C 64.742188 228.34375 64.132812 227.523438 63.566406 226.675781 C 63 225.824219 62.472656 224.949219 61.992188 224.050781 C 61.507812 223.148438 61.070312 222.226562 60.679688 221.285156 C 60.285156 220.339844 59.941406 219.382812 59.640625 218.40625 C 59.34375 217.425781 59.09375 216.4375 58.890625 215.4375 C 58.691406 214.433594 58.539062 213.425781 58.4375 212.410156 C 58.332031 211.394531 58.28125 210.375 58.277344 209.351562 L 58.277344 178.136719 L 89.886719 178.136719 C 90.902344 178.148438 91.914062 178.210938 92.925781 178.320312 C 93.9375 178.429688 94.941406 178.589844 95.933594 178.796875 C 96.929688 179.003906 97.914062 179.261719 98.882812 179.566406 C 99.855469 179.867188 100.808594 180.21875 101.742188 180.613281 C 102.679688 181.011719 103.59375 181.453125 104.488281 181.9375 C 105.382812 182.421875 106.25 182.949219 107.09375 183.519531 C 107.933594 184.085938 108.746094 184.695312 109.53125 185.34375 C 110.3125 185.992188 111.0625 186.679688 111.78125 187.398438 C 112.496094 188.121094 113.179688 188.875 113.820312 189.660156 C 114.464844 190.449219 115.070312 191.265625 115.632812 192.113281 C 116.195312 192.957031 116.71875 193.828125 117.199219 194.726562 C 117.675781 195.621094 118.113281 196.539062 118.503906 197.480469 C 118.894531 198.417969 119.238281 199.375 119.535156 200.34375 C 119.832031 201.316406 120.082031 202.300781 120.28125 203.296875 C 120.484375 204.296875 120.636719 205.300781 120.742188 206.3125 C 120.847656 207.320312 120.902344 208.335938 120.90625 209.351562 Z M 120.90625 209.351562 " fill-opacity="1" fill-rule="nonzero"/></g><g clip-path="url(#id3)"><path fill="rgb(32.159424%, 44.309998%, 100%)" d="M 24.945312 201.027344 L 66.113281 201.027344 C 67.445312 201.023438 68.773438 200.953125 70.101562 200.816406 C 71.425781 200.683594 72.742188 200.484375 74.046875 200.21875 C 75.351562 199.957031 76.640625 199.628906 77.914062 199.238281 C 79.1875 198.847656 80.441406 198.394531 81.667969 197.882812 C 82.898438 197.367188 84.097656 196.796875 85.273438 196.164062 C 86.445312 195.535156 87.585938 194.847656 88.691406 194.105469 C 89.796875 193.363281 90.863281 192.566406 91.890625 191.71875 C 92.917969 190.871094 93.902344 189.976562 94.839844 189.03125 C 95.78125 188.085938 96.671875 187.097656 97.511719 186.066406 C 98.355469 185.035156 99.144531 183.964844 99.882812 182.855469 C 100.621094 181.746094 101.304688 180.605469 101.929688 179.429688 C 102.554688 178.253906 103.121094 177.050781 103.628906 175.816406 C 104.136719 174.585938 104.582031 173.332031 104.964844 172.058594 C 105.347656 170.78125 105.671875 169.492188 105.929688 168.183594 C 106.1875 166.878906 106.378906 165.5625 106.507812 164.234375 C 106.636719 162.910156 106.699219 161.582031 106.695312 160.25 C 106.695312 158.914062 106.625 157.578125 106.492188 156.25 C 106.355469 154.917969 106.160156 153.597656 105.894531 152.289062 C 105.632812 150.976562 105.304688 149.683594 104.914062 148.40625 C 104.523438 147.125 104.070312 145.871094 103.558594 144.636719 C 103.042969 143.402344 102.472656 142.195312 101.839844 141.019531 C 101.207031 139.839844 100.519531 138.695312 99.773438 137.585938 C 99.03125 136.476562 98.234375 135.40625 97.382812 134.371094 C 96.535156 133.339844 95.636719 132.351562 94.691406 131.410156 C 93.746094 130.464844 92.753906 129.570312 91.71875 128.722656 C 90.6875 127.875 89.613281 127.082031 88.5 126.339844 C 87.390625 125.597656 86.242188 124.910156 85.0625 124.28125 C 83.882812 123.652344 82.675781 123.082031 81.441406 122.574219 C 80.207031 122.0625 78.949219 121.613281 77.671875 121.226562 C 76.390625 120.835938 75.09375 120.515625 73.785156 120.253906 C 72.472656 119.992188 71.152344 119.796875 69.824219 119.667969 C 68.492188 119.535156 67.160156 119.46875 65.820312 119.46875 C 64.484375 119.46875 63.152344 119.535156 61.820312 119.667969 C 60.492188 119.796875 59.171875 119.992188 57.859375 120.253906 C 56.546875 120.515625 55.253906 120.835938 53.972656 121.226562 C 52.695312 121.613281 51.4375 122.0625 50.203125 122.574219 C 48.96875 123.082031 47.757812 123.652344 46.582031 124.28125 C 45.402344 124.910156 44.253906 125.597656 43.144531 126.339844 C 42.03125 127.082031 40.957031 127.875 39.925781 128.722656 C 38.890625 129.570312 37.898438 130.464844 36.953125 131.410156 C 36.007812 132.351562 35.109375 133.339844 34.257812 134.371094 C 33.410156 135.40625 32.613281 136.476562 31.871094 137.585938 C 31.125 138.695312 30.4375 139.839844 29.804688 141.019531 C 29.171875 142.195312 28.601562 143.402344 28.085938 144.636719 C 27.574219 145.871094 27.121094 147.125 26.730469 148.40625 C 26.339844 149.683594 26.011719 150.976562 25.75 152.289062 C 25.484375 153.597656 25.285156 154.917969 25.152344 156.25 C 25.019531 157.578125 24.949219 158.914062 24.945312 160.25 Z M 65.917969 128.835938 C 66.941406 128.839844 67.960938 128.890625 68.976562 128.996094 C 69.992188 129.097656 71 129.25 72.003906 129.453125 C 73.003906 129.652344 73.996094 129.902344 74.972656 130.203125 C 75.949219 130.5 76.910156 130.84375 77.851562 131.238281 C 78.796875 131.628906 79.71875 132.066406 80.617188 132.550781 C 81.519531 133.03125 82.390625 133.558594 83.242188 134.125 C 84.089844 134.695312 84.910156 135.300781 85.699219 135.949219 C 86.488281 136.597656 87.246094 137.285156 87.964844 138.007812 C 88.6875 138.730469 89.375 139.484375 90.023438 140.273438 C 90.671875 141.0625 91.28125 141.882812 91.847656 142.730469 C 92.414062 143.582031 92.941406 144.457031 93.421875 145.355469 C 93.90625 146.257812 94.34375 147.179688 94.734375 148.121094 C 95.128906 149.066406 95.472656 150.023438 95.773438 151.003906 C 96.070312 151.980469 96.320312 152.96875 96.523438 153.96875 C 96.722656 154.972656 96.875 155.980469 96.976562 156.996094 C 97.082031 158.011719 97.132812 159.03125 97.136719 160.054688 L 97.136719 160.25 C 97.132812 161.269531 97.082031 162.289062 96.976562 163.304688 C 96.875 164.320312 96.722656 165.332031 96.523438 166.332031 C 96.320312 167.335938 96.070312 168.324219 95.773438 169.300781 C 95.472656 170.277344 95.128906 171.238281 94.734375 172.179688 C 94.34375 173.125 93.90625 174.046875 93.421875 174.945312 C 92.941406 175.847656 92.414062 176.722656 91.847656 177.570312 C 91.28125 178.417969 90.671875 179.238281 90.023438 180.027344 C 89.375 180.816406 88.6875 181.574219 87.964844 182.296875 C 87.246094 183.019531 86.488281 183.703125 85.699219 184.351562 C 84.910156 185 84.089844 185.609375 83.242188 186.175781 C 82.390625 186.746094 81.519531 187.269531 80.617188 187.753906 C 79.71875 188.234375 78.796875 188.671875 77.851562 189.066406 C 76.910156 189.457031 75.949219 189.804688 74.972656 190.101562 C 73.996094 190.398438 73.003906 190.648438 72.003906 190.851562 C 71 191.050781 69.992188 191.203125 68.976562 191.308594 C 67.960938 191.410156 66.941406 191.464844 65.917969 191.464844 L 34.703125 191.464844 L 34.703125 159.859375 C 34.714844 158.84375 34.777344 157.828125 34.886719 156.816406 C 34.996094 155.808594 35.15625 154.804688 35.363281 153.808594 C 35.574219 152.8125 35.828125 151.832031 36.132812 150.859375 C 36.433594 149.890625 36.785156 148.9375 37.179688 148 C 37.578125 147.0625 38.019531 146.148438 38.503906 145.253906 C 38.988281 144.359375 39.515625 143.492188 40.085938 142.652344 C 40.652344 141.808594 41.261719 140.996094 41.910156 140.210938 C 42.558594 139.429688 43.246094 138.679688 43.964844 137.960938 C 44.6875 137.246094 45.441406 136.566406 46.226562 135.921875 C 47.015625 135.277344 47.832031 134.675781 48.679688 134.109375 C 49.523438 133.546875 50.394531 133.023438 51.292969 132.546875 C 52.1875 132.066406 53.105469 131.632812 54.046875 131.242188 C 54.984375 130.851562 55.941406 130.507812 56.914062 130.210938 C 57.882812 129.910156 58.867188 129.664062 59.867188 129.460938 C 60.863281 129.257812 61.867188 129.105469 62.878906 129 C 63.890625 128.898438 64.902344 128.84375 65.917969 128.835938 Z M 65.917969 128.835938 " fill-opacity="1" fill-rule="nonzero"/></g><g fill="rgb(32.159424%, 44.309998%, 100%)" fill-opacity="1"><g transform="translate(141.221129, 199.874987)"><g><path d="M 12.9375 -25.59375 C 11.738281 -25.59375 10.757812 -25.285156 10 -24.671875 C 9.238281 -24.054688 8.859375 -23.203125 8.859375 -22.109375 C 8.859375 -21.015625 9.132812 -20.160156 9.6875 -19.546875 C 10.25 -18.929688 10.988281 -18.457031 11.90625 -18.125 C 12.832031 -17.800781 13.835938 -17.507812 14.921875 -17.25 C 16.015625 -16.988281 17.101562 -16.671875 18.1875 -16.296875 C 19.28125 -15.929688 20.285156 -15.472656 21.203125 -14.921875 C 22.117188 -14.378906 22.859375 -13.582031 23.421875 -12.53125 C 23.984375 -11.488281 24.265625 -10.222656 24.265625 -8.734375 C 24.265625 -6.265625 23.28125 -4.140625 21.3125 -2.359375 C 19.351562 -0.585938 16.742188 0.296875 13.484375 0.296875 C 10.234375 0.296875 7.601562 -0.46875 5.59375 -2 C 3.582031 -3.53125 2.578125 -5.6875 2.578125 -8.46875 L 9.03125 -8.46875 C 9.257812 -5.832031 10.765625 -4.515625 13.546875 -4.515625 C 14.921875 -4.515625 16.007812 -4.875 16.8125 -5.59375 C 17.625 -6.3125 18.03125 -7.265625 18.03125 -8.453125 C 18.03125 -9.640625 17.5 -10.578125 16.4375 -11.265625 C 15.375 -11.953125 14.085938 -12.46875 12.578125 -12.8125 C 11.078125 -13.15625 9.566406 -13.570312 8.046875 -14.0625 C 6.523438 -14.550781 5.234375 -15.40625 4.171875 -16.625 C 3.109375 -17.84375 2.578125 -19.457031 2.578125 -21.46875 C 2.578125 -24.1875 3.566406 -26.363281 5.546875 -28 C 7.523438 -29.632812 10.066406 -30.453125 13.171875 -30.453125 C 16.285156 -30.453125 18.789062 -29.742188 20.6875 -28.328125 C 22.582031 -26.910156 23.613281 -24.753906 23.78125 -21.859375 L 17.15625 -21.859375 C 17.039062 -23.003906 16.609375 -23.910156 15.859375 -24.578125 C 15.117188 -25.253906 14.144531 -25.59375 12.9375 -25.59375 Z M 12.9375 -25.59375 "/></g></g></g><g fill="rgb(32.159424%, 44.309998%, 100%)" fill-opacity="1"><g transform="translate(170.216364, 199.874987)"><g><path d="M 19.984375 -6.796875 C 21.234375 -8.054688 21.859375 -9.773438 21.859375 -11.953125 C 21.859375 -14.140625 21.234375 -15.847656 19.984375 -17.078125 C 18.734375 -18.304688 17.257812 -18.921875 15.5625 -18.921875 C 13.875 -18.921875 12.40625 -18.296875 11.15625 -17.046875 C 9.914062 -15.804688 9.296875 -14.09375 9.296875 -11.90625 C 9.296875 -9.726562 9.914062 -8.015625 11.15625 -6.765625 C 12.40625 -5.523438 13.875 -4.90625 15.5625 -4.90625 C 17.257812 -4.90625 18.734375 -5.535156 19.984375 -6.796875 Z M 9.296875 -20.125 C 10.984375 -22.820312 13.460938 -24.171875 16.734375 -24.171875 C 20.003906 -24.171875 22.695312 -23.03125 24.8125 -20.75 C 26.9375 -18.46875 28 -15.523438 28 -11.921875 C 28 -8.328125 26.9375 -5.382812 24.8125 -3.09375 C 22.695312 -0.800781 20.023438 0.34375 16.796875 0.34375 C 13.566406 0.34375 11.066406 -1.101562 9.296875 -4 L 9.296875 11.359375 L 3.21875 11.359375 L 3.21875 -23.828125 L 9.296875 -23.828125 Z M 9.296875 -20.125 "/></g></g></g><g fill="rgb(32.159424%, 44.309998%, 100%)" fill-opacity="1"><g transform="translate(201.921835, 199.874987)"><g><path d="M 9.296875 -23.828125 L 9.296875 -19.609375 C 10.898438 -22.648438 13.222656 -24.171875 16.265625 -24.171875 L 16.265625 -17.984375 L 14.75 -17.984375 C 12.945312 -17.984375 11.585938 -17.53125 10.671875 -16.625 C 9.753906 -15.71875 9.296875 -14.160156 9.296875 -11.953125 L 9.296875 0 L 3.21875 0 L 3.21875 -23.828125 Z M 9.296875 -23.828125 "/></g></g></g><g fill="rgb(32.159424%, 44.309998%, 100%)" fill-opacity="1"><g transform="translate(221.409743, 199.874987)"><g><path d="M 13.796875 -4.78125 C 15.492188 -4.78125 16.953125 -5.398438 18.171875 -6.640625 C 19.390625 -7.890625 20 -9.65625 20 -11.9375 C 20 -14.21875 19.394531 -15.972656 18.1875 -17.203125 C 16.988281 -18.441406 15.535156 -19.0625 13.828125 -19.0625 C 12.117188 -19.0625 10.675781 -18.441406 9.5 -17.203125 C 8.332031 -15.972656 7.75 -14.207031 7.75 -11.90625 C 7.75 -9.613281 8.332031 -7.851562 9.5 -6.625 C 10.675781 -5.394531 12.109375 -4.78125 13.796875 -4.78125 Z M 5.078125 -3.046875 C 2.753906 -5.316406 1.59375 -8.285156 1.59375 -11.953125 C 1.59375 -15.628906 2.765625 -18.582031 5.109375 -20.8125 C 7.460938 -23.050781 10.378906 -24.171875 13.859375 -24.171875 C 17.347656 -24.171875 20.269531 -23.050781 22.625 -20.8125 C 24.976562 -18.582031 26.15625 -15.628906 26.15625 -11.953125 C 26.15625 -8.285156 24.972656 -5.316406 22.609375 -3.046875 C 20.242188 -0.785156 17.3125 0.34375 13.8125 0.34375 C 10.3125 0.34375 7.398438 -0.785156 5.078125 -3.046875 Z M 5.078125 -3.046875 "/></g></g></g><g fill="rgb(32.159424%, 44.309998%, 100%)" fill-opacity="1"><g transform="translate(251.308398, 199.874987)"><g><path d="M 19.65625 -23.828125 L 25.71875 -23.828125 L 25.71875 0 L 19.65625 0 L 19.65625 -3.609375 C 18.132812 -1.003906 15.65625 0.296875 12.21875 0.296875 C 9.519531 0.296875 7.3125 -0.597656 5.59375 -2.390625 C 3.875 -4.179688 3.015625 -6.664062 3.015625 -9.84375 L 3.015625 -23.828125 L 9.03125 -23.828125 L 9.03125 -10.703125 C 9.03125 -8.847656 9.503906 -7.414062 10.453125 -6.40625 C 11.398438 -5.40625 12.691406 -4.90625 14.328125 -4.90625 C 15.960938 -4.90625 17.257812 -5.40625 18.21875 -6.40625 C 19.175781 -7.414062 19.65625 -8.847656 19.65625 -10.703125 Z M 19.65625 -23.828125 "/></g></g></g><g fill="rgb(32.159424%, 44.309998%, 100%)" fill-opacity="1"><g transform="translate(282.411595, 199.874987)"><g><path d="M 12.46875 -5.078125 L 15.359375 -5.078125 L 15.359375 0 L 11.53125 0 C 9.09375 0 7.210938 -0.554688 5.890625 -1.671875 C 4.578125 -2.796875 3.921875 -4.648438 3.921875 -7.234375 L 3.921875 -18.890625 L 1.375 -18.890625 L 1.375 -23.828125 L 3.921875 -23.828125 L 3.921875 -29.71875 L 9.984375 -29.71875 L 9.984375 -23.828125 L 15.3125 -23.828125 L 15.3125 -18.890625 L 9.984375 -18.890625 L 9.984375 -7.234375 C 9.984375 -6.453125 10.164062 -5.894531 10.53125 -5.5625 C 10.90625 -5.238281 11.550781 -5.078125 12.46875 -5.078125 Z M 12.46875 -5.078125 "/></g></g></g><g fill="rgb(32.159424%, 44.309998%, 100%)" fill-opacity="1"><g transform="translate(301.426296, 199.874987)"><g><path d="M 3.21875 0 L 3.21875 -31.828125 L 9.296875 -31.828125 L 9.296875 0 Z M 3.21875 0 "/></g></g></g><g fill="rgb(32.159424%, 44.309998%, 100%)" fill-opacity="1"><g transform="translate(316.096018, 199.874987)"><g><path d="M 9.640625 -0.4375 L 0.296875 -23.828125 L 7.09375 -23.828125 L 13.15625 -6.875 L 19.578125 -23.828125 L 25.890625 -23.828125 L 11.015625 11.265625 L 4.6875 11.265625 Z M 9.640625 -0.4375 "/></g></g></g></svg>